<?xml version="1.0" standalone="no"?>
<!DOCTYPE svg PUBLIC "-//W3C//DTD SVG 20010904//EN"
 "http://www.w3.org/TR/2001/REC-SVG-20010904/DTD/svg10.dtd">
<svg version="1.0" xmlns="http://www.w3.org/2000/svg"
 width="1080.000000pt" height="1080.000000pt" viewBox="0 0 1080.000000 1080.000000"
 preserveAspectRatio="xMidYMid meet">

<g transform="translate(0.000000,1080.000000) scale(0.100000,-0.100000)"
fill="#000000" stroke="none">
<path d="M0 5400 l0 -5400 5400 0 5400 0 0 5400 0 5400 -5400 0 -5400 0 0
-5400z m10600 0 l0 -5200 -5200 0 -5200 0 0 5200 0 5200 5200 0 5200 0 0
-5200z"/>
<path d="M2060 5245 l0 -1905 205 0 205 0 0 1554 0 1554 31 4 c27 4 33 1 44
-26 12 -29 1068 -2945 1102 -3043 l15 -43 223 0 223 0 32 88 c17 48 270 749
562 1557 291 809 531 1471 532 1471 0 1 16 -1 34 -3 l32 -5 0 -1554 0 -1554
210 0 210 0 0 1905 0 1905 -318 0 -319 0 -573 -1602 c-315 -882 -575 -1609
-578 -1615 -2 -7 -16 -13 -31 -13 -26 0 -33 19 -590 1578 -310 867 -571 1594
-579 1615 l-14 37 -329 0 -329 0 0 -1905z"/>
<path d="M6880 5245 l0 -1905 1140 0 1140 0 0 185 0 185 -920 0 -920 0 0 1720
0 1720 -220 0 -220 0 0 -1905z"/>
</g>
</svg>
